<svg xmlns="http://www.w3.org/2000/svg" width="810" viewBox="0 0 810 810" height="810" version="1.0"><defs><clipPath id="a"><path d="M 49.472656 61.917969 L 760.472656 61.917969 L 760.472656 748.167969 L 49.472656 748.167969 Z M 49.472656 61.917969"/></clipPath></defs><g clip-path="url(#a)"><path fill="#FFF" d="M 551.996094 331.515625 C 437.132812 331.515625 343.710938 424.953125 343.710938 539.839844 C 343.710938 575.261719 352.664062 608.628906 368.3125 637.875 L 74.167969 637.875 L 74.167969 221.222656 L 613.257812 221.222656 L 613.257812 340.753906 C 593.875 334.769531 573.292969 331.515625 551.996094 331.515625 Z M 735.777344 539.839844 C 735.777344 641.226562 653.316406 723.65625 551.996094 723.65625 C 450.679688 723.65625 368.21875 641.226562 368.21875 539.839844 C 368.21875 438.453125 450.679688 356.023438 551.996094 356.023438 C 653.316406 356.023438 735.777344 438.453125 735.777344 539.839844 Z M 123.175781 662.386719 L 383.914062 662.386719 C 390.230469 671.050781 397.074219 679.332031 404.589844 686.894531 L 123.175781 686.894531 Z M 74.167969 135.441406 C 74.167969 128.695312 79.671875 123.1875 86.421875 123.1875 L 123.175781 123.1875 L 123.175781 147.699219 C 123.175781 154.445312 128.679688 159.953125 135.429688 159.953125 L 184.4375 159.953125 C 191.183594 159.953125 196.6875 154.445312 196.6875 147.699219 L 196.6875 123.1875 L 245.695312 123.1875 L 245.695312 147.699219 C 245.695312 154.445312 251.199219 159.953125 257.949219 159.953125 L 306.957031 159.953125 C 313.707031 159.953125 319.207031 154.445312 319.207031 147.699219 L 319.207031 123.1875 L 368.21875 123.1875 L 368.21875 147.699219 C 368.21875 154.445312 373.71875 159.953125 380.46875 159.953125 L 429.476562 159.953125 C 436.226562 159.953125 441.730469 154.445312 441.730469 147.699219 L 441.730469 123.1875 L 490.738281 123.1875 L 490.738281 147.699219 C 490.738281 154.445312 496.242188 159.953125 502.988281 159.953125 L 551.996094 159.953125 C 558.746094 159.953125 564.25 154.445312 564.25 147.699219 L 564.25 123.1875 L 601.003906 123.1875 C 607.753906 123.1875 613.257812 128.695312 613.257812 135.441406 L 613.257812 196.714844 L 74.167969 196.714844 Z M 147.679688 98.679688 C 147.679688 91.929688 153.183594 86.425781 159.933594 86.425781 C 166.679688 86.425781 172.183594 91.929688 172.183594 98.679688 L 172.183594 135.441406 L 147.679688 135.441406 Z M 270.199219 98.679688 C 270.199219 91.929688 275.703125 86.425781 282.453125 86.425781 C 289.199219 86.425781 294.703125 91.929688 294.703125 98.679688 L 294.703125 135.441406 L 270.199219 135.441406 Z M 392.722656 98.679688 C 392.722656 91.929688 398.226562 86.425781 404.972656 86.425781 C 411.722656 86.425781 417.226562 91.929688 417.226562 98.679688 L 417.226562 135.441406 L 392.722656 135.441406 Z M 515.242188 98.679688 C 515.242188 91.929688 520.746094 86.425781 527.492188 86.425781 C 534.242188 86.425781 539.746094 91.929688 539.746094 98.679688 L 539.746094 135.441406 L 515.242188 135.441406 Z M 637.761719 135.441406 C 637.761719 115.148438 621.296875 98.679688 601.003906 98.679688 L 564.25 98.679688 C 564.25 78.382812 547.785156 61.917969 527.492188 61.917969 C 507.199219 61.917969 490.738281 78.382812 490.738281 98.679688 L 441.730469 98.679688 C 441.730469 78.382812 425.265625 61.917969 404.972656 61.917969 C 384.679688 61.917969 368.21875 78.382812 368.21875 98.679688 L 319.207031 98.679688 C 319.207031 78.382812 302.746094 61.917969 282.453125 61.917969 C 262.160156 61.917969 245.695312 78.382812 245.695312 98.679688 L 196.6875 98.679688 C 196.6875 78.382812 180.226562 61.917969 159.933594 61.917969 C 139.640625 61.917969 123.175781 78.382812 123.175781 98.679688 L 86.421875 98.679688 C 66.128906 98.679688 49.664062 115.148438 49.664062 135.441406 L 49.664062 650.128906 C 49.664062 656.878906 55.167969 662.386719 61.917969 662.386719 L 98.671875 662.386719 L 98.671875 699.148438 C 98.671875 705.898438 104.175781 711.402344 110.925781 711.402344 L 433.542969 711.402344 C 433.6875 711.402344 433.832031 711.308594 433.976562 711.308594 C 467.574219 734.523438 508.207031 748.167969 551.996094 748.167969 C 666.859375 748.167969 760.28125 654.726562 760.28125 539.839844 C 760.28125 455.542969 709.882812 382.972656 637.761719 350.230469 L 637.761719 135.441406"/></g><path fill="#FFF" d="M 159.933594 319.261719 C 153.183594 319.261719 147.679688 313.753906 147.679688 307.003906 C 147.679688 300.257812 153.183594 294.75 159.933594 294.75 C 166.679688 294.75 172.183594 300.257812 172.183594 307.003906 C 172.183594 313.753906 166.679688 319.261719 159.933594 319.261719 Z M 159.933594 270.242188 C 139.640625 270.242188 123.175781 286.710938 123.175781 307.003906 C 123.175781 327.300781 139.640625 343.769531 159.933594 343.769531 C 180.226562 343.769531 196.6875 327.300781 196.6875 307.003906 C 196.6875 286.710938 180.226562 270.242188 159.933594 270.242188"/><path fill="#FFF" d="M 282.453125 319.261719 C 275.703125 319.261719 270.199219 313.753906 270.199219 307.003906 C 270.199219 300.257812 275.703125 294.75 282.453125 294.75 C 289.199219 294.75 294.703125 300.257812 294.703125 307.003906 C 294.703125 313.753906 289.199219 319.261719 282.453125 319.261719 Z M 282.453125 270.242188 C 262.160156 270.242188 245.695312 286.710938 245.695312 307.003906 C 245.695312 327.300781 262.160156 343.769531 282.453125 343.769531 C 302.746094 343.769531 319.207031 327.300781 319.207031 307.003906 C 319.207031 286.710938 302.746094 270.242188 282.453125 270.242188"/><path fill="#FFF" d="M 404.972656 319.261719 C 398.226562 319.261719 392.722656 313.753906 392.722656 307.003906 C 392.722656 300.257812 398.226562 294.75 404.972656 294.75 C 411.722656 294.75 417.226562 300.257812 417.226562 307.003906 C 417.226562 313.753906 411.722656 319.261719 404.972656 319.261719 Z M 404.972656 270.242188 C 384.679688 270.242188 368.21875 286.710938 368.21875 307.003906 C 368.21875 327.300781 384.679688 343.769531 404.972656 343.769531 C 425.265625 343.769531 441.730469 327.300781 441.730469 307.003906 C 441.730469 286.710938 425.265625 270.242188 404.972656 270.242188"/><path fill="#FFF" d="M 159.933594 417.296875 C 153.183594 417.296875 147.679688 411.789062 147.679688 405.042969 C 147.679688 398.292969 153.183594 392.785156 159.933594 392.785156 C 166.679688 392.785156 172.183594 398.292969 172.183594 405.042969 C 172.183594 411.789062 166.679688 417.296875 159.933594 417.296875 Z M 159.933594 368.277344 C 139.640625 368.277344 123.175781 384.746094 123.175781 405.042969 C 123.175781 425.335938 139.640625 441.804688 159.933594 441.804688 C 180.226562 441.804688 196.6875 425.335938 196.6875 405.042969 C 196.6875 384.746094 180.226562 368.277344 159.933594 368.277344"/><path fill="#FFF" d="M 282.453125 417.296875 C 275.703125 417.296875 270.199219 411.789062 270.199219 405.042969 C 270.199219 398.292969 275.703125 392.785156 282.453125 392.785156 C 289.199219 392.785156 294.703125 398.292969 294.703125 405.042969 C 294.703125 411.789062 289.199219 417.296875 282.453125 417.296875 Z M 282.453125 368.277344 C 262.160156 368.277344 245.695312 384.746094 245.695312 405.042969 C 245.695312 425.335938 262.160156 441.804688 282.453125 441.804688 C 302.746094 441.804688 319.207031 425.335938 319.207031 405.042969 C 319.207031 384.746094 302.746094 368.277344 282.453125 368.277344"/><path fill="#FFF" d="M 159.933594 515.332031 C 153.183594 515.332031 147.679688 509.828125 147.679688 503.078125 C 147.679688 496.328125 153.183594 490.824219 159.933594 490.824219 C 166.679688 490.824219 172.183594 496.328125 172.183594 503.078125 C 172.183594 509.828125 166.679688 515.332031 159.933594 515.332031 Z M 159.933594 466.3125 C 139.640625 466.3125 123.175781 482.78125 123.175781 503.078125 C 123.175781 523.375 139.640625 539.839844 159.933594 539.839844 C 180.226562 539.839844 196.6875 523.375 196.6875 503.078125 C 196.6875 482.78125 180.226562 466.3125 159.933594 466.3125"/><path fill="#FFF" d="M 282.453125 515.332031 C 275.703125 515.332031 270.199219 509.828125 270.199219 503.078125 C 270.199219 496.328125 275.703125 490.824219 282.453125 490.824219 C 289.199219 490.824219 294.703125 496.328125 294.703125 503.078125 C 294.703125 509.828125 289.199219 515.332031 282.453125 515.332031 Z M 282.453125 466.3125 C 262.160156 466.3125 245.695312 482.78125 245.695312 503.078125 C 245.695312 523.375 262.160156 539.839844 282.453125 539.839844 C 302.746094 539.839844 319.207031 523.375 319.207031 503.078125 C 319.207031 482.78125 302.746094 466.3125 282.453125 466.3125"/><path fill="#FFF" d="M 686.769531 539.839844 L 662.265625 539.839844 C 655.515625 539.839844 650.011719 545.34375 650.011719 552.09375 C 650.011719 558.84375 655.515625 564.347656 662.265625 564.347656 L 684.421875 564.347656 C 673.558594 623.085938 624.648438 668.558594 564.25 674.015625 L 564.25 650.128906 C 564.25 643.382812 558.746094 637.875 551.996094 637.875 C 545.25 637.875 539.746094 643.382812 539.746094 650.128906 L 539.746094 674.015625 C 479.347656 668.558594 430.433594 623.085938 419.570312 564.347656 L 441.730469 564.347656 C 448.476562 564.347656 453.980469 558.84375 453.980469 552.09375 C 453.980469 545.34375 448.476562 539.839844 441.730469 539.839844 L 417.226562 539.839844 C 417.226562 469.664062 471.164062 411.886719 539.746094 405.664062 L 539.746094 429.550781 C 539.746094 436.300781 545.25 441.804688 551.996094 441.804688 C 558.746094 441.804688 564.25 436.300781 564.25 429.550781 L 564.25 405.664062 C 632.832031 411.886719 686.769531 469.664062 686.769531 539.839844 Z M 392.722656 539.839844 C 392.722656 627.679688 464.175781 699.148438 551.996094 699.148438 C 639.820312 699.148438 711.273438 627.679688 711.273438 539.839844 C 711.273438 452 639.820312 380.53125 551.996094 380.53125 C 464.175781 380.53125 392.722656 452 392.722656 539.839844"/><path fill="#FFF" d="M 554.628906 533.953125 L 537.6875 508.535156 C 533.90625 502.886719 526.34375 501.402344 520.695312 505.136719 C 515.050781 508.871094 513.566406 516.480469 517.296875 522.128906 L 541.800781 558.890625 C 543.71875 561.765625 546.78125 563.726562 550.226562 564.207031 C 550.847656 564.300781 551.421875 564.347656 551.996094 564.347656 C 554.820312 564.347656 557.644531 563.34375 559.84375 561.523438 L 633.355469 500.253906 C 638.574219 495.898438 639.242188 488.191406 634.9375 482.972656 C 630.582031 477.753906 622.875 477.085938 617.660156 481.390625 L 554.628906 533.953125"/></svg>