<svg xmlns="http://www.w3.org/2000/svg" width="810" viewBox="0 0 810 810" height="810" version="1.0"><defs><clipPath id="a"><path d="M 30 45.289062 L 781 45.289062 L 781 764 L 30 764 Z M 30 45.289062"/></clipPath></defs><g clip-path="url(#a)"><path fill="#FFF" d="M 316.789062 45.964844 C 160.433594 45.964844 30.464844 159.539062 30.464844 302.367188 C 30.464844 370.945312 61.125 433.210938 109.757812 479.164062 L 108.230469 486.683594 C 97.265625 518.808594 70.300781 536.972656 54.304688 542.769531 C 44.996094 546.085938 37.285156 551.121094 33.015625 559.914062 C 28.808594 568.648438 31.355469 580.757812 37.730469 587.066406 C 52.644531 602.042969 72.023438 600.578125 86.175781 600.703125 C 139.398438 601.34375 202.121094 573.425781 240.109375 554.433594 L 240.554688 554.242188 L 253.558594 546.722656 L 248.585938 545.191406 L 249.160156 545.320312 C 270.324219 550.226562 292.503906 551.757812 314.304688 551.757812 C 451.792969 551.757812 570.097656 469.605469 596.234375 351.378906 L 596.234375 351.316406 C 599.738281 335.574219 601.585938 319.191406 601.585938 302.367188 C 601.585938 159.667969 473.148438 45.964844 316.789062 45.964844 Z M 316.789062 78.597656 C 457.402344 78.597656 568.953125 179.296875 568.953125 302.367188 C 568.953125 316.835938 567.359375 330.855469 564.363281 344.304688 C 542.050781 445.257812 438.855469 519.125 314.304688 519.125 C 294.164062 519.125 274.339844 517.597656 256.617188 513.515625 L 249.480469 511.414062 L 225.320312 525.308594 C 189.242188 543.34375 127.03125 568.582031 86.554688 568.074219 C 81.011719 568.074219 80.5 566.988281 76.613281 566.542969 C 99.816406 555.199219 126.585938 534.613281 139.335938 496.753906 L 139.589844 495.925781 L 145.453125 468.394531 L 138.25 462.019531 C 91.527344 421.167969 63.101562 364.507812 63.101562 302.367188 C 63.101562 179.425781 176.175781 78.597656 316.789062 78.597656 Z M 177.324219 192.808594 L 177.324219 225.441406 L 454.726562 225.441406 L 454.726562 192.808594 Z M 177.324219 274.386719 L 177.324219 307.019531 L 454.726562 307.019531 L 454.726562 274.386719 Z M 630.714844 342.839844 C 629.886719 348.0625 629.3125 353.289062 628.167969 358.453125 C 626.890625 364.0625 625.234375 369.542969 623.578125 375.085938 C 698.730469 404.085938 748.191406 462.53125 748.191406 527.476562 C 748.191406 574.0625 723.96875 617.59375 679.859375 650.164062 L 671 656.726562 L 673.742188 667.433594 C 682.539062 701.148438 713.390625 718.546875 734.742188 730.148438 C 700.894531 734.738281 627.339844 727.089844 590.367188 683.367188 L 584.183594 675.972656 L 574.75 677.886719 C 559.898438 680.816406 542.691406 682.285156 522.039062 682.285156 C 420.5625 682.285156 338.144531 642.960938 306.082031 584.132812 C 292.824219 583.878906 280.457031 582.988281 268.855469 581.585938 C 299.132812 661.761719 396.46875 714.914062 522.039062 714.914062 C 540.839844 714.914062 557.222656 713.769531 571.945312 711.539062 C 607.960938 747.992188 666.667969 763.800781 714.21875 763.800781 C 717.339844 763.800781 720.464844 763.734375 723.460938 763.609375 C 751.058594 762.332031 769.035156 755.960938 777.003906 744.679688 C 780.507812 739.582031 781.71875 733.589844 780.316406 727.726562 C 777.578125 716.0625 766.867188 710.328125 752.015625 702.359375 C 737.417969 694.457031 718.234375 684.070312 709.246094 668.582031 C 754.949219 630.851562 780.828125 580.117188 780.828125 527.476562 C 780.828125 447.425781 720.972656 375.980469 630.714844 342.839844 Z M 177.324219 355.96875 L 177.324219 388.597656 L 373.136719 388.597656 L 373.136719 355.96875 Z M 585.523438 453.863281 C 577.363281 465.335938 568.378906 476.296875 558.496094 486.492188 L 634.222656 486.492188 L 634.222656 453.863281 Z M 496.988281 535.441406 C 474.488281 548.953125 449.820312 559.980469 423.621094 568.074219 L 634.222656 568.074219 L 634.222656 535.441406 Z M 496.988281 535.441406"/></g></svg>