<?xml version="1.0" encoding="UTF-8"?>
<svg xmlns="http://www.w3.org/2000/svg" xmlns:xlink="http://www.w3.org/1999/xlink" width="810pt" height="809.999993pt" viewBox="0 0 810 809.999993" version="1.2">
<defs>
<clipPath id="clip1">
  <path d="M 0 103 L 504 103 L 504 807.613281 L 0 807.613281 Z M 0 103 "/>
</clipPath>
<clipPath id="clip2">
  <path d="M 385 690 L 504 690 L 504 807.613281 L 385 807.613281 Z M 385 690 "/>
</clipPath>
</defs>
<g id="surface1">
<g clip-path="url(#clip1)" clip-rule="nonzero">
<path style=" stroke:none;fill-rule:nonzero;fill:rgb(100%,100%,100%);fill-opacity:1;" d="M 217.984375 589.628906 L 100.636719 589.628906 C 91.351562 589.628906 83.851562 582.128906 83.851562 572.84375 C 83.851562 563.558594 91.351562 556.0625 100.636719 556.0625 L 217.984375 556.0625 C 227.269531 556.0625 234.769531 563.558594 234.769531 572.84375 C 234.769531 582.128906 227.269531 589.628906 217.984375 589.628906 Z M 445.398438 483.78125 L 341.761719 512.636719 C 338.476562 513.5625 335.121094 514.0625 331.691406 513.992188 C 319.90625 513.992188 308.835938 508.492188 301.691406 499.066406 C 299.335938 496.066406 297.550781 492.636719 296.335938 488.992188 L 100.636719 488.992188 C 91.351562 488.992188 83.851562 481.496094 83.851562 472.210938 C 83.851562 462.996094 91.351562 455.496094 100.636719 455.496094 L 298.335938 455.496094 L 316.976562 388.359375 L 100.636719 388.359375 C 91.351562 388.359375 83.851562 380.859375 83.851562 371.644531 C 83.851562 362.359375 91.351562 354.859375 100.636719 354.859375 L 327.191406 354.859375 C 329.546875 349.433594 332.90625 344.574219 337.046875 340.433594 L 389.757812 287.792969 L 100.636719 287.792969 C 91.351562 287.792969 83.851562 280.292969 83.851562 271.007812 C 83.851562 261.722656 91.351562 254.226562 100.636719 254.226562 L 423.257812 254.226562 L 503.105469 174.375 L 503.105469 120.089844 C 503.394531 111.09375 496.320312 103.59375 487.324219 103.308594 L 15.785156 103.308594 C 6.785156 103.59375 -0.285156 111.09375 0 120.089844 L 0 790.828125 C -0.285156 799.828125 6.785156 807.328125 15.785156 807.613281 L 352.1875 807.613281 L 352.1875 706.980469 C 352.261719 679.265625 374.6875 656.769531 402.472656 656.695312 L 503.105469 656.695312 L 503.105469 435.355469 L 467.539062 470.925781 C 461.394531 477.066406 453.824219 481.496094 445.398438 483.78125 "/>
</g>
<g clip-path="url(#clip2)" clip-rule="nonzero">
<path style=" stroke:none;fill-rule:nonzero;fill:rgb(100%,100%,100%);fill-opacity:1;" d="M 402.472656 690.265625 C 393.257812 690.265625 385.757812 697.765625 385.6875 706.980469 L 385.6875 807.613281 L 503.105469 690.265625 L 402.472656 690.265625 "/>
</g>
<path style=" stroke:none;fill-rule:nonzero;fill:rgb(100%,100%,100%);fill-opacity:1;" d="M 790.371094 22.167969 C 779.160156 9.742188 763.230469 2.671875 746.589844 2.671875 C 731.019531 2.671875 716.09375 8.886719 705.164062 19.957031 L 503.105469 221.871094 L 452.609375 272.367188 L 437.328125 287.578125 L 360.6875 364.21875 C 358.6875 366.289062 357.1875 368.789062 356.546875 371.644531 L 331.546875 461.496094 L 327.691406 475.28125 C 327.046875 477.421875 328.332031 479.710938 330.476562 480.28125 C 330.90625 480.421875 331.332031 480.496094 331.691406 480.421875 C 332.121094 480.496094 332.476562 480.421875 332.90625 480.28125 L 333.40625 480.136719 L 436.539062 451.425781 C 439.253906 450.710938 441.753906 449.28125 443.753906 447.28125 L 503.105469 387.859375 L 785.800781 105.164062 C 808.871094 82.953125 810.871094 46.738281 790.371094 22.167969 "/>
</g>
</svg>
