<?xml version="1.0" encoding="UTF-8"?>
<svg xmlns="http://www.w3.org/2000/svg" xmlns:xlink="http://www.w3.org/1999/xlink" width="810pt" height="809.999993pt" viewBox="0 0 810 809.999993" version="1.2">
<defs>
<clipPath id="clip1">
  <path d="M 54.683594 54.683594 L 755.183594 54.683594 L 755.183594 755.183594 L 54.683594 755.183594 Z M 54.683594 54.683594 "/>
</clipPath>
</defs>
<g id="surface1">
<g clip-path="url(#clip1)" clip-rule="nonzero">
<path style=" stroke:none;fill-rule:nonzero;fill:rgb(15.689087%,21.569824%,33.729553%);fill-opacity:1;" d="M 626.757812 54.683594 L 183.109375 54.683594 C 112.296875 54.683594 54.683594 112.296875 54.683594 183.109375 L 54.683594 626.757812 C 54.683594 697.570312 112.296875 755.183594 183.109375 755.183594 L 397.476562 755.183594 L 397.476562 498.289062 L 347.699219 498.289062 L 347.699219 411.183594 L 397.476562 411.183594 L 397.476562 396.40625 C 397.476562 350.523438 411.480469 299.960938 445.699219 268.855469 C 475.257812 240.859375 516.472656 230.746094 550.695312 230.746094 C 577.144531 230.746094 597.363281 233.855469 613.691406 238.523438 L 609.023438 329.515625 C 598.914062 326.40625 586.472656 324.074219 570.917969 324.074219 C 532.027344 324.074219 515.699219 354.40625 515.699219 391.738281 L 515.699219 411.183594 L 591.914062 411.183594 L 591.914062 498.289062 L 516.476562 498.289062 L 516.476562 755.183594 L 626.757812 755.183594 C 697.574219 755.183594 755.183594 697.570312 755.183594 626.757812 L 755.183594 183.109375 C 755.183594 112.296875 697.574219 54.683594 626.757812 54.683594 Z M 626.757812 54.683594 "/>
</g>
</g>
</svg>
