<?xml version="1.0" encoding="UTF-8"?>
<svg xmlns="http://www.w3.org/2000/svg" xmlns:xlink="http://www.w3.org/1999/xlink" width="810pt" height="809.999993pt" viewBox="0 0 810 809.999993" version="1.2">
<g id="surface1">
<path style=" stroke:none;fill-rule:nonzero;fill:rgb(100%,100%,100%);fill-opacity:1;" d="M 809.351562 708.757812 L 595.351562 708.757812 L 580.839844 591.765625 L 760.871094 591.765625 L 809.351562 708.757812 "/>
<path style=" stroke:none;fill-rule:nonzero;fill:rgb(100%,100%,100%);fill-opacity:1;" d="M 600.589844 454.699219 C 602.417969 443.476562 599.382812 432.296875 592.023438 423.195312 C 590.859375 421.78125 589.695312 420.410156 588.449219 419.164062 L 689.316406 419.164062 L 737.007812 534.203125 L 573.648438 534.203125 L 568.492188 492.894531 C 571.570312 491.273438 574.605469 489.527344 577.597656 487.613281 C 590.152344 479.550781 598.550781 467.582031 600.589844 454.699219 "/>
<path style=" stroke:none;fill-rule:nonzero;fill:rgb(100%,100%,100%);fill-opacity:1;" d="M 344.84375 517.371094 C 365.675781 519.285156 386.296875 520.28125 406.171875 520.324219 L 406.421875 520.613281 L 406.671875 520.324219 L 407.335938 520.324219 C 443.925781 520.324219 479.390625 517.082031 512.734375 510.640625 L 515.648438 534.203125 L 294.121094 534.203125 L 297.113281 510.804688 C 314.617188 514.253906 331.082031 516.125 344.84375 517.371094 "/>
<path style=" stroke:none;fill-rule:nonzero;fill:rgb(100%,100%,100%);fill-opacity:1;" d="M 522.796875 591.765625 L 537.351562 708.757812 L 271.875 708.757812 L 286.761719 591.765625 L 522.796875 591.765625 "/>
<path style=" stroke:none;fill-rule:nonzero;fill:rgb(100%,100%,100%);fill-opacity:1;" d="M 119.578125 419.164062 L 221.402344 419.164062 C 212.128906 428.679688 209.34375 438.488281 208.804688 445.472656 C 207.515625 460.601562 215.039062 475.230469 229.425781 485.660156 C 233.335938 488.488281 237.367188 490.941406 241.359375 492.976562 L 236.078125 534.203125 L 71.886719 534.203125 L 119.578125 419.164062 "/>
<path style=" stroke:none;fill-rule:nonzero;fill:rgb(100%,100%,100%);fill-opacity:1;" d="M 534.730469 335.542969 C 538.429688 328.976562 541.839844 322.660156 545.082031 316.382812 C 551.320312 304.414062 557.265625 291.367188 563.542969 275.863281 L 630.070312 275.863281 L 667.78125 366.839844 L 538.597656 366.839844 L 534.730469 335.542969 "/>
<path style=" stroke:none;fill-rule:nonzero;fill:rgb(100%,100%,100%);fill-opacity:1;" d="M 275.453125 337.371094 L 271.667969 366.839844 L 141.863281 366.839844 L 179.574219 275.863281 L 245.390625 275.863281 C 246.761719 279.394531 248.136719 282.71875 249.507812 285.796875 C 251.046875 289.371094 252.667969 292.984375 254.332031 296.558594 C 257.449219 303.210938 260.773438 310.066406 264.351562 316.925781 C 267.84375 323.699219 271.503906 330.472656 275.453125 337.332031 L 275.453125 337.371094 "/>
<path style=" stroke:none;fill-rule:nonzero;fill:rgb(100%,100%,100%);fill-opacity:1;" d="M 48.0625 591.765625 L 228.761719 591.765625 L 213.835938 708.757812 L -0.414062 708.757812 L 48.0625 591.765625 "/>
<path style=" stroke:none;fill-rule:nonzero;fill:rgb(100%,100%,100%);fill-opacity:1;" d="M 269.589844 443.726562 C 276.074219 438.40625 283.808594 435.164062 291.585938 432.546875 C 310.917969 425.980469 331.082031 422.65625 351.207031 420.496094 C 354.199219 420.203125 357.195312 419.914062 360.144531 419.664062 C 362.058594 422.28125 363.929688 424.859375 365.800781 427.433594 L 372.410156 436.496094 C 374.117188 438.824219 375.820312 441.148438 377.527344 443.519531 C 371.332031 444.515625 365.261719 446.136719 359.523438 448.839844 C 357.152344 449.917969 354.574219 451.832031 354.574219 454.574219 C 354.574219 454.699219 354.574219 454.824219 354.574219 454.949219 C 354.742188 457.234375 356.695312 458.773438 358.523438 459.769531 C 364.511719 463.175781 371.164062 464.632812 377.816406 465.671875 C 383.71875 466.585938 389.707031 467.207031 395.695312 467.539062 C 401.929688 467.875 408.210938 467.875 414.488281 467.539062 C 418.730469 467.332031 422.929688 466.957031 427.128906 466.417969 C 434.945312 465.460938 442.800781 463.925781 450.035156 460.515625 C 461.347656 455.28125 451.078125 448.339844 444.257812 446.34375 C 440.347656 445.179688 436.398438 444.265625 432.40625 443.558594 C 436.441406 438.15625 440.390625 432.835938 444.257812 427.519531 C 445.796875 425.441406 447.375 423.320312 448.871094 421.199219 C 449.246094 420.742188 449.621094 420.246094 449.953125 419.746094 C 455.066406 420.203125 460.222656 420.742188 465.335938 421.367188 C 484.378906 423.652344 503.421875 427.0625 521.59375 433.667969 C 529.617188 436.578125 538.222656 440.402344 544.003906 447.550781 C 550.15625 455.15625 543.917969 463.59375 537.390625 467.75 C 523.878906 476.394531 508.453125 480.425781 493.113281 483.5 C 448.125 492.351562 402.097656 493.390625 356.613281 489.195312 C 335.574219 487.242188 314.535156 484.207031 294.246094 477.679688 C 286.179688 475.105469 278.195312 471.945312 271.167969 466.875 C 266.96875 463.800781 262.8125 459.230469 263.269531 453.699219 C 263.644531 449.546875 266.554688 446.21875 269.589844 443.726562 "/>
<path style=" stroke:none;fill-rule:nonzero;fill:rgb(100%,100%,100%);fill-opacity:1;" d="M 466.792969 222.125 C 466.792969 256.289062 439.101562 284.007812 404.925781 284.007812 C 370.75 284.007812 343.015625 256.289062 343.015625 222.125 C 343.015625 187.921875 370.75 160.242188 404.925781 160.242188 C 439.101562 160.242188 466.792969 187.921875 466.792969 222.125 Z M 531.738281 249.472656 C 543.421875 219.796875 540.300781 190.539062 525.75 162.652344 C 504.171875 121.507812 468.746094 97.234375 420.226562 91.292969 C 350.832031 82.730469 284.640625 129.652344 272.582031 194.28125 C 267.925781 219.257812 273.621094 242.324219 283.558594 265.058594 C 284.972656 268.382812 286.46875 271.707031 288.007812 275.03125 C 291.003906 281.472656 294.164062 287.875 297.445312 294.191406 C 310.710938 319.875 326.136719 344.480469 342.640625 368.460938 C 354.199219 385.292969 366.175781 401.832031 378.230469 418.375 C 383.886719 426.1875 389.582031 433.960938 395.238281 441.773438 C 397.398438 444.683594 399.476562 447.632812 401.597656 450.542969 C 402.429688 451.707031 403.429688 452.785156 404.964844 454.617188 C 408.210938 450.25 411.453125 445.929688 414.695312 441.648438 C 420.515625 433.835938 426.253906 426.1875 431.867188 418.457031 C 433.40625 416.378906 434.945312 414.300781 436.484375 412.183594 C 438.976562 408.691406 441.511719 405.160156 444.050781 401.625 C 446.085938 398.800781 448.125 395.890625 450.121094 393.0625 C 465.546875 371.160156 480.390625 348.96875 493.984375 326.027344 C 495.566406 323.367188 497.1875 320.625 498.722656 317.921875 C 503.339844 309.902344 507.789062 301.796875 512.03125 293.609375 C 519.472656 279.269531 525.875 264.390625 531.738281 249.472656 "/>
</g>
</svg>
