<svg xmlns="http://www.w3.org/2000/svg" width="810" viewBox="0 0 810 810" height="810" version="1.0"><path fill="#FFF" d="M 499.523438 590.972656 L 403.992188 686.472656 L 308.574219 590.972656 C 310.277344 589.679688 312.003906 588.425781 313.757812 587.207031 C 315.507812 585.984375 317.285156 584.800781 319.085938 583.652344 C 320.886719 582.503906 322.710938 581.394531 324.558594 580.320312 C 326.402344 579.246094 328.269531 578.207031 330.160156 577.210938 C 332.046875 576.210938 333.957031 575.25 335.882812 574.328125 C 337.808594 573.410156 339.753906 572.527344 341.71875 571.683594 C 343.679688 570.84375 345.660156 570.039062 347.65625 569.277344 C 349.648438 568.515625 351.660156 567.792969 353.683594 567.113281 C 355.710938 566.433594 357.746094 565.792969 359.796875 565.195312 C 361.847656 564.597656 363.910156 564.042969 365.984375 563.527344 C 368.054688 563.011719 370.140625 562.539062 372.230469 562.109375 C 374.324219 561.679688 376.425781 561.292969 378.53125 560.949219 C 380.640625 560.601562 382.753906 560.300781 384.875 560.042969 C 386.996094 559.78125 389.121094 559.566406 391.25 559.394531 C 393.378906 559.21875 395.507812 559.089844 397.644531 559.003906 C 399.777344 558.917969 401.914062 558.875 404.050781 558.875 C 406.1875 558.875 408.320312 558.917969 410.457031 559.003906 C 412.589844 559.089844 414.722656 559.222656 416.851562 559.394531 C 418.980469 559.566406 421.105469 559.78125 423.222656 560.042969 C 425.34375 560.300781 427.457031 560.601562 429.566406 560.949219 C 431.675781 561.292969 433.773438 561.679688 435.867188 562.109375 C 437.960938 562.539062 440.042969 563.011719 442.117188 563.527344 C 444.1875 564.042969 446.25 564.597656 448.300781 565.195312 C 450.351562 565.792969 452.390625 566.433594 454.414062 567.113281 C 456.4375 567.792969 458.449219 568.515625 460.445312 569.277344 C 462.441406 570.039062 464.417969 570.84375 466.382812 571.683594 C 468.34375 572.527344 470.289062 573.410156 472.214844 574.328125 C 474.144531 575.25 476.050781 576.210938 477.941406 577.210938 C 479.828125 578.207031 481.695312 579.246094 483.539062 580.320312 C 485.386719 581.394531 487.210938 582.503906 489.011719 583.652344 C 490.8125 584.800781 492.589844 585.984375 494.34375 587.207031 C 496.09375 588.425781 497.824219 589.679688 499.523438 590.972656 Z M 522.433594 567.730469 C 518.339844 564.242188 514.105469 560.941406 509.722656 557.828125 C 505.339844 554.710938 500.832031 551.792969 496.195312 549.070312 C 491.554688 546.351562 486.808594 543.835938 481.949219 541.53125 C 477.09375 539.226562 472.144531 537.136719 467.105469 535.265625 C 462.0625 533.394531 456.949219 531.746094 451.765625 530.324219 C 446.582031 528.898438 441.34375 527.703125 436.054688 526.738281 C 430.765625 525.773438 425.441406 525.039062 420.089844 524.539062 C 414.734375 524.039062 409.371094 523.777344 403.992188 523.746094 C 387.753906 524.128906 371.789062 526.414062 356.09375 530.597656 L 229.058594 254.539062 C 228.820312 254.035156 228.554688 253.542969 228.269531 253.0625 C 227.980469 252.582031 227.671875 252.117188 227.339844 251.667969 C 227.007812 251.21875 226.652344 250.785156 226.277344 250.371094 C 225.90625 249.953125 225.511719 249.558594 225.101562 249.179688 C 224.6875 248.800781 224.257812 248.445312 223.8125 248.109375 C 223.367188 247.773438 222.902344 247.457031 222.425781 247.164062 C 221.949219 246.871094 221.460938 246.605469 220.957031 246.359375 C 220.453125 246.113281 219.941406 245.894531 219.417969 245.699219 C 218.894531 245.503906 218.363281 245.332031 217.820312 245.1875 C 217.28125 245.042969 216.734375 244.925781 216.183594 244.835938 C 215.632812 244.742188 215.078125 244.679688 214.519531 244.640625 C 213.960938 244.601562 213.402344 244.589844 212.84375 244.605469 C 212.285156 244.621094 211.726562 244.664062 211.171875 244.734375 C 210.617188 244.800781 210.066406 244.898438 209.519531 245.019531 C 208.976562 245.140625 208.4375 245.289062 207.90625 245.464844 C 207.375 245.636719 206.851562 245.835938 206.339844 246.0625 C 205.816406 246.28125 205.308594 246.523438 204.8125 246.796875 C 204.3125 247.066406 203.832031 247.363281 203.367188 247.683594 C 202.898438 248.003906 202.449219 248.347656 202.019531 248.714844 C 201.585938 249.082031 201.175781 249.46875 200.785156 249.878906 C 200.390625 250.289062 200.023438 250.714844 199.675781 251.164062 C 199.328125 251.609375 199.003906 252.074219 198.703125 252.554688 C 198.402344 253.03125 198.128906 253.527344 197.878906 254.035156 C 197.628906 254.542969 197.40625 255.0625 197.207031 255.59375 C 197.011719 256.125 196.84375 256.664062 196.703125 257.210938 C 196.558594 257.761719 196.449219 258.3125 196.363281 258.875 C 196.277344 259.433594 196.222656 259.996094 196.195312 260.5625 C 196.167969 261.128906 196.171875 261.691406 196.203125 262.257812 C 196.234375 262.824219 196.292969 263.386719 196.382812 263.945312 C 196.472656 264.503906 196.589844 265.058594 196.734375 265.605469 C 196.878906 266.152344 197.050781 266.6875 197.253906 267.21875 C 197.453125 267.75 197.679688 268.265625 197.933594 268.773438 L 323.757812 542.824219 C 309.667969 549.851562 296.417969 558.203125 284 567.882812 L 34.09375 316.617188 C 40.285156 310.804688 46.613281 305.140625 53.070312 299.625 C 59.53125 294.113281 66.117188 288.753906 72.828125 283.546875 C 79.539062 278.34375 86.371094 273.300781 93.320312 268.417969 C 100.269531 263.535156 107.328125 258.820312 114.5 254.269531 C 121.671875 249.71875 128.949219 245.339844 136.328125 241.132812 C 143.707031 236.925781 151.179688 232.894531 158.746094 229.039062 C 166.316406 225.183594 173.972656 221.511719 181.710938 218.015625 C 189.453125 214.523438 197.273438 211.210938 205.171875 208.085938 C 213.070312 204.960938 221.035156 202.023438 229.074219 199.273438 C 237.109375 196.519531 245.207031 193.960938 253.363281 191.59375 C 261.519531 189.222656 269.726562 187.046875 277.988281 185.066406 C 286.246094 183.082031 294.546875 181.296875 302.890625 179.707031 C 311.234375 178.113281 319.613281 176.71875 328.023438 175.523438 C 336.429688 174.328125 344.863281 173.328125 353.320312 172.53125 C 361.777344 171.730469 370.246094 171.132812 378.734375 170.730469 C 387.21875 170.332031 395.707031 170.132812 404.199219 170.132812 C 412.695312 170.132812 421.183594 170.332031 429.667969 170.730469 C 438.152344 171.132812 446.625 171.730469 455.082031 172.53125 C 463.539062 173.328125 471.972656 174.328125 480.378906 175.523438 C 488.789062 176.71875 497.167969 178.113281 505.511719 179.707031 C 513.855469 181.296875 522.15625 183.082031 530.414062 185.066406 C 538.675781 187.046875 546.882812 189.222656 555.039062 191.59375 C 563.195312 193.960938 571.292969 196.519531 579.328125 199.273438 C 587.367188 202.023438 595.332031 204.960938 603.230469 208.085938 C 611.128906 211.210938 618.949219 214.523438 626.691406 218.015625 C 634.429688 221.511719 642.085938 225.183594 649.65625 229.039062 C 657.222656 232.894531 664.695312 236.925781 672.074219 241.132812 C 679.453125 245.339844 686.726562 249.71875 693.898438 254.269531 C 701.074219 258.820312 708.132812 263.535156 715.082031 268.417969 C 722.03125 273.300781 728.863281 278.34375 735.574219 283.546875 C 742.285156 288.753906 748.871094 294.113281 755.332031 299.625 C 761.789062 305.140625 768.117188 310.804688 774.308594 316.617188 Z M 522.433594 567.730469"/></svg>