<?xml version="1.0" encoding="UTF-8"?>
<svg xmlns="http://www.w3.org/2000/svg" xmlns:xlink="http://www.w3.org/1999/xlink" width="810pt" height="809.999993pt" viewBox="0 0 810 809.999993" version="1.2">
<defs>
<clipPath id="clip1">
  <path d="M 52.050781 52.050781 L 741.300781 52.050781 L 741.300781 741.300781 L 52.050781 741.300781 Z M 52.050781 52.050781 "/>
</clipPath>
</defs>
<g id="surface1">
<g clip-path="url(#clip1)" clip-rule="nonzero">
<path style=" stroke:none;fill-rule:nonzero;fill:rgb(15.689087%,21.569824%,33.729553%);fill-opacity:1;" d="M 243.507812 52.050781 C 137.785156 52.050781 52.050781 137.785156 52.050781 243.507812 L 52.050781 549.84375 C 52.050781 655.566406 137.785156 741.300781 243.507812 741.300781 L 549.839844 741.300781 C 655.566406 741.300781 741.300781 655.566406 741.300781 549.84375 L 741.300781 243.507812 C 741.300781 137.785156 655.566406 52.050781 549.839844 52.050781 Z M 626.425781 128.632812 C 647.5625 128.632812 664.714844 145.789062 664.714844 166.925781 C 664.714844 188.0625 647.5625 205.21875 626.425781 205.21875 C 605.289062 205.21875 588.132812 188.0625 588.132812 166.925781 C 588.132812 145.789062 605.289062 128.632812 626.425781 128.632812 Z M 396.675781 205.21875 C 502.398438 205.21875 588.132812 290.953125 588.132812 396.675781 C 588.132812 502.398438 502.398438 588.132812 396.675781 588.132812 C 290.953125 588.132812 205.21875 502.398438 205.21875 396.675781 C 205.21875 290.953125 290.953125 205.21875 396.675781 205.21875 Z M 396.675781 281.800781 C 394.796875 281.800781 392.917969 281.847656 391.039062 281.9375 C 389.160156 282.03125 387.285156 282.167969 385.414062 282.351562 C 383.542969 282.539062 381.679688 282.769531 379.820312 283.042969 C 377.960938 283.320312 376.109375 283.640625 374.265625 284.007812 C 372.421875 284.375 370.585938 284.785156 368.761719 285.242188 C 366.9375 285.699219 365.128906 286.199219 363.328125 286.746094 C 361.53125 287.292969 359.746094 287.882812 357.976562 288.515625 C 356.203125 289.148438 354.453125 289.824219 352.714844 290.542969 C 350.976562 291.265625 349.257812 292.027344 347.558594 292.828125 C 345.859375 293.632812 344.179688 294.476562 342.523438 295.363281 C 340.867188 296.25 339.230469 297.175781 337.617188 298.144531 C 336.003906 299.109375 334.417969 300.117188 332.855469 301.160156 C 331.289062 302.203125 329.753906 303.285156 328.246094 304.40625 C 326.734375 305.527344 325.253906 306.683594 323.800781 307.875 C 322.347656 309.066406 320.921875 310.296875 319.53125 311.558594 C 318.136719 312.820312 316.777344 314.117188 315.445312 315.445312 C 314.117188 316.777344 312.820312 318.136719 311.558594 319.53125 C 310.296875 320.921875 309.066406 322.347656 307.875 323.800781 C 306.683594 325.253906 305.527344 326.734375 304.40625 328.246094 C 303.285156 329.753906 302.203125 331.289062 301.160156 332.855469 C 300.117188 334.417969 299.109375 336.003906 298.144531 337.617188 C 297.175781 339.230469 296.25 340.867188 295.363281 342.523438 C 294.476562 344.179688 293.632812 345.859375 292.828125 347.558594 C 292.027344 349.257812 291.265625 350.976562 290.542969 352.714844 C 289.824219 354.453125 289.148438 356.203125 288.515625 357.976562 C 287.882812 359.746094 287.292969 361.53125 286.746094 363.328125 C 286.199219 365.128906 285.699219 366.9375 285.242188 368.761719 C 284.785156 370.585938 284.375 372.421875 284.007812 374.265625 C 283.640625 376.109375 283.320312 377.960938 283.042969 379.820312 C 282.769531 381.679688 282.539062 383.542969 282.351562 385.414062 C 282.167969 387.285156 282.03125 389.160156 281.9375 391.039062 C 281.847656 392.917969 281.800781 394.796875 281.800781 396.675781 C 281.800781 398.554688 281.847656 400.433594 281.9375 402.3125 C 282.03125 404.191406 282.167969 406.0625 282.351562 407.933594 C 282.539062 409.804688 282.769531 411.671875 283.042969 413.53125 C 283.320312 415.390625 283.640625 417.242188 284.007812 419.085938 C 284.375 420.929688 284.785156 422.765625 285.242188 424.585938 C 285.699219 426.410156 286.199219 428.222656 286.746094 430.023438 C 287.292969 431.820312 287.882812 433.605469 288.515625 435.375 C 289.148438 437.144531 289.824219 438.898438 290.542969 440.636719 C 291.265625 442.371094 292.027344 444.089844 292.828125 445.789062 C 293.632812 447.488281 294.476562 449.167969 295.363281 450.828125 C 296.25 452.484375 297.175781 454.121094 298.144531 455.734375 C 299.109375 457.34375 300.117188 458.933594 301.160156 460.496094 C 302.203125 462.058594 303.285156 463.597656 304.40625 465.105469 C 305.527344 466.617188 306.683594 468.097656 307.875 469.550781 C 309.066406 471.003906 310.296875 472.425781 311.558594 473.820312 C 312.820312 475.214844 314.117188 476.574219 315.445312 477.902344 C 316.777344 479.234375 318.136719 480.53125 319.53125 481.792969 C 320.921875 483.054688 322.347656 484.28125 323.800781 485.476562 C 325.253906 486.667969 326.734375 487.824219 328.242188 488.945312 C 329.753906 490.0625 331.289062 491.144531 332.855469 492.191406 C 334.417969 493.234375 336.003906 494.238281 337.617188 495.207031 C 339.230469 496.171875 340.867188 497.101562 342.523438 497.984375 C 344.179688 498.871094 345.859375 499.71875 347.558594 500.519531 C 349.257812 501.324219 350.976562 502.085938 352.714844 502.804688 C 354.453125 503.523438 356.203125 504.203125 357.976562 504.835938 C 359.746094 505.46875 361.53125 506.058594 363.328125 506.605469 C 365.128906 507.148438 366.9375 507.652344 368.761719 508.109375 C 370.585938 508.5625 372.421875 508.976562 374.265625 509.34375 C 376.109375 509.710938 377.960938 510.03125 379.820312 510.308594 C 381.679688 510.582031 383.542969 510.8125 385.414062 510.996094 C 387.285156 511.179688 389.160156 511.320312 391.039062 511.410156 C 392.917969 511.503906 394.796875 511.550781 396.675781 511.550781 C 398.554688 511.550781 400.433594 511.503906 402.3125 511.410156 C 404.191406 511.320312 406.0625 511.179688 407.933594 510.996094 C 409.804688 510.8125 411.671875 510.582031 413.53125 510.308594 C 415.390625 510.03125 417.242188 509.710938 419.085938 509.34375 C 420.929688 508.976562 422.765625 508.5625 424.585938 508.109375 C 426.410156 507.652344 428.222656 507.148438 430.023438 506.605469 C 431.820312 506.058594 433.605469 505.46875 435.375 504.835938 C 437.144531 504.203125 438.898438 503.523438 440.636719 502.804688 C 442.371094 502.085938 444.089844 501.324219 445.789062 500.519531 C 447.488281 499.71875 449.167969 498.871094 450.828125 497.984375 C 452.484375 497.101562 454.121094 496.171875 455.734375 495.207031 C 457.34375 494.238281 458.933594 493.234375 460.496094 492.191406 C 462.058594 491.144531 463.597656 490.0625 465.105469 488.945312 C 466.617188 487.824219 468.097656 486.667969 469.550781 485.476562 C 471.003906 484.28125 472.425781 483.054688 473.820312 481.792969 C 475.214844 480.53125 476.574219 479.234375 477.902344 477.902344 C 479.234375 476.574219 480.53125 475.214844 481.792969 473.820312 C 483.054688 472.425781 484.28125 471.003906 485.476562 469.550781 C 486.667969 468.097656 487.824219 466.617188 488.945312 465.105469 C 490.0625 463.597656 491.144531 462.058594 492.191406 460.496094 C 493.234375 458.933594 494.238281 457.34375 495.207031 455.734375 C 496.171875 454.121094 497.097656 452.484375 497.984375 450.828125 C 498.871094 449.167969 499.71875 447.488281 500.519531 445.789062 C 501.324219 444.089844 502.085938 442.371094 502.804688 440.636719 C 503.523438 438.898438 504.203125 437.144531 504.835938 435.375 C 505.46875 433.605469 506.058594 431.820312 506.605469 430.023438 C 507.148438 428.222656 507.652344 426.410156 508.105469 424.585938 C 508.5625 422.765625 508.976562 420.929688 509.34375 419.085938 C 509.710938 417.242188 510.03125 415.390625 510.308594 413.53125 C 510.582031 411.671875 510.8125 409.804688 510.996094 407.933594 C 511.179688 406.0625 511.320312 404.191406 511.410156 402.3125 C 511.503906 400.433594 511.550781 398.554688 511.550781 396.675781 C 511.550781 394.796875 511.503906 392.917969 511.410156 391.039062 C 511.320312 389.160156 511.179688 387.285156 510.996094 385.414062 C 510.8125 383.542969 510.582031 381.679688 510.308594 379.820312 C 510.03125 377.960938 509.710938 376.109375 509.34375 374.265625 C 508.976562 372.421875 508.5625 370.585938 508.105469 368.761719 C 507.652344 366.9375 507.148438 365.128906 506.605469 363.328125 C 506.058594 361.53125 505.46875 359.746094 504.835938 357.976562 C 504.203125 356.203125 503.523438 354.453125 502.804688 352.714844 C 502.085938 350.976562 501.324219 349.257812 500.519531 347.558594 C 499.71875 345.859375 498.871094 344.179688 497.984375 342.523438 C 497.097656 340.867188 496.171875 339.230469 495.207031 337.617188 C 494.238281 336.003906 493.234375 334.417969 492.191406 332.855469 C 491.144531 331.289062 490.0625 329.753906 488.945312 328.246094 C 487.824219 326.734375 486.667969 325.253906 485.476562 323.800781 C 484.28125 322.347656 483.054688 320.921875 481.792969 319.53125 C 480.53125 318.136719 479.234375 316.777344 477.902344 315.445312 C 476.574219 314.117188 475.214844 312.820312 473.820312 311.558594 C 472.425781 310.296875 471.003906 309.066406 469.550781 307.875 C 468.097656 306.683594 466.617188 305.527344 465.105469 304.40625 C 463.597656 303.285156 462.058594 302.203125 460.496094 301.160156 C 458.933594 300.117188 457.34375 299.109375 455.734375 298.144531 C 454.121094 297.175781 452.484375 296.25 450.828125 295.363281 C 449.167969 294.476562 447.488281 293.632812 445.789062 292.828125 C 444.089844 292.027344 442.371094 291.265625 440.636719 290.542969 C 438.898438 289.824219 437.144531 289.148438 435.375 288.515625 C 433.605469 287.882812 431.820312 287.292969 430.023438 286.746094 C 428.222656 286.199219 426.410156 285.699219 424.585938 285.242188 C 422.765625 284.785156 420.929688 284.375 419.085938 284.007812 C 417.242188 283.640625 415.390625 283.320312 413.53125 283.042969 C 411.671875 282.769531 409.804688 282.539062 407.933594 282.351562 C 406.0625 282.167969 404.191406 282.03125 402.3125 281.9375 C 400.433594 281.847656 398.554688 281.800781 396.675781 281.800781 Z M 396.675781 281.800781 "/>
</g>
</g>
</svg>
