<svg xmlns="http://www.w3.org/2000/svg" width="810" viewBox="0 0 810 810" height="810" version="1.0"><defs><clipPath id="a"><path d="M 41 24.617188 L 769 24.617188 L 769 785.117188 L 41 785.117188 Z M 41 24.617188"/></clipPath></defs><g clip-path="url(#a)"><path fill="#FFF" d="M 404.90625 24.617188 C 384.242188 24.617188 366.636719 32.960938 355.335938 45.671875 C 344.039062 58.378906 338.769531 74.675781 338.769531 90.746094 C 338.769531 106.820312 344.039062 123.117188 355.335938 135.824219 C 363.332031 144.820312 375.210938 150.308594 388.375 153.519531 L 388.375 338.738281 C 388.359375 339.84375 388.457031 340.941406 388.664062 342.03125 C 375.609375 345.15625 363.871094 350.589844 355.820312 359.371094 C 354.632812 358.199219 353.300781 357.230469 351.816406 356.464844 L 171.234375 256.171875 C 172.539062 250.691406 173.429688 245.128906 173.429688 239.539062 C 173.429688 223.46875 168.160156 207.171875 156.863281 194.464844 C 145.566406 181.753906 127.960938 173.410156 107.292969 173.410156 C 86.625 173.410156 69.019531 181.753906 57.722656 194.464844 C 46.425781 207.171875 41.15625 223.46875 41.15625 239.539062 C 41.15625 255.613281 46.425781 271.910156 57.722656 284.617188 C 69.019531 297.328125 86.625 305.671875 107.292969 305.671875 C 127.457031 305.671875 144.605469 297.648438 155.925781 285.457031 L 335.769531 385.363281 C 337.457031 386.351562 339.265625 387.019531 341.191406 387.367188 C 339.742188 393.125 338.769531 398.980469 338.769531 404.867188 C 338.769531 410.992188 339.78125 417.097656 341.355469 423.078125 C 338.796875 423.246094 336.40625 423.964844 334.1875 425.242188 L 155.925781 524.242188 C 144.605469 512.0625 127.449219 504.0625 107.292969 504.0625 C 86.625 504.0625 69.019531 512.40625 57.722656 525.117188 C 46.425781 537.824219 41.15625 554.121094 41.15625 570.191406 C 41.15625 586.265625 46.425781 602.5625 57.722656 615.269531 C 69.019531 627.976562 86.625 636.324219 107.292969 636.324219 C 127.960938 636.324219 145.566406 627.976562 156.863281 615.269531 C 168.160156 602.5625 173.429688 586.265625 173.429688 570.191406 C 173.429688 564.621094 172.5625 559.0625 171.265625 553.597656 L 350.269531 454.140625 C 352.242188 453.085938 353.933594 451.6875 355.335938 449.945312 C 363.390625 459.003906 375.378906 464.523438 388.664062 467.703125 C 388.457031 468.792969 388.359375 469.890625 388.375 470.996094 L 388.375 656.214844 C 375.210938 659.425781 363.332031 664.914062 355.335938 673.910156 C 344.039062 686.617188 338.769531 702.914062 338.769531 718.988281 C 338.769531 735.058594 344.039062 751.355469 355.335938 764.0625 C 366.636719 776.773438 384.242188 785.117188 404.90625 785.117188 C 425.574219 785.117188 443.179688 776.773438 454.480469 764.0625 C 465.777344 751.355469 471.046875 735.058594 471.046875 718.988281 C 471.046875 702.914062 465.777344 686.617188 454.480469 673.910156 C 446.484375 664.914062 434.605469 659.425781 421.441406 656.214844 L 421.441406 470.996094 C 421.457031 469.890625 421.359375 468.792969 421.152344 467.703125 C 434.371094 464.539062 446.296875 459.054688 454.347656 450.074219 C 455.675781 451.621094 457.238281 452.878906 459.03125 453.851562 L 638.582031 553.5625 C 637.277344 559.042969 636.386719 564.605469 636.386719 570.191406 C 636.386719 586.265625 641.65625 602.5625 652.953125 615.269531 C 664.25 627.976562 681.855469 636.324219 702.523438 636.324219 C 723.191406 636.324219 740.796875 627.976562 752.09375 615.269531 C 763.390625 602.5625 768.660156 586.265625 768.660156 570.191406 C 768.660156 554.121094 763.390625 537.824219 752.09375 525.117188 C 740.796875 512.40625 723.191406 504.0625 702.523438 504.0625 C 682.378906 504.0625 665.242188 512.074219 653.921875 524.242188 L 475.082031 424.953125 C 473.035156 423.78125 470.839844 423.082031 468.492188 422.851562 C 470.027344 416.941406 471.046875 410.917969 471.046875 404.867188 C 471.046875 399.113281 470.105469 393.386719 468.71875 387.753906 C 470.1875 387.363281 471.578125 386.78125 472.886719 386.007812 L 653.890625 285.488281 C 665.210938 297.671875 682.367188 305.671875 702.523438 305.671875 C 723.191406 305.671875 740.796875 297.328125 752.09375 284.617188 C 763.390625 271.910156 768.660156 255.613281 768.660156 239.539062 C 768.660156 223.46875 763.390625 207.171875 752.09375 194.464844 C 740.796875 181.753906 723.191406 173.410156 702.523438 173.410156 C 681.855469 173.410156 664.25 181.753906 652.953125 194.464844 C 641.65625 207.171875 636.386719 223.46875 636.386719 239.539062 C 636.386719 245.128906 637.277344 250.691406 638.582031 256.171875 L 456.835938 357.109375 C 455.746094 357.683594 454.734375 358.375 453.800781 359.175781 C 445.757812 350.515625 434.105469 345.128906 421.152344 342.03125 C 421.359375 340.941406 421.457031 339.84375 421.441406 338.738281 L 421.441406 153.519531 C 434.605469 150.308594 446.484375 144.820312 454.480469 135.824219 C 465.777344 123.117188 471.046875 106.820312 471.046875 90.746094 C 471.046875 74.675781 465.777344 58.378906 454.480469 45.671875 C 443.179688 32.960938 425.574219 24.617188 404.90625 24.617188 Z M 404.90625 57.683594 C 417.308594 57.683594 424.503906 61.738281 429.742188 67.628906 C 434.980469 73.519531 437.976562 82.023438 437.976562 90.746094 C 437.976562 99.472656 434.980469 107.976562 429.742188 113.867188 C 424.605469 119.644531 417.355469 123.464844 405.390625 123.617188 C 405.058594 123.597656 404.726562 123.585938 404.390625 123.585938 C 392.464844 123.421875 385.199219 119.632812 380.074219 113.867188 C 374.835938 107.976562 371.839844 99.472656 371.839844 90.746094 C 371.839844 82.023438 374.835938 73.519531 380.074219 67.628906 C 385.3125 61.738281 392.507812 57.683594 404.90625 57.683594 Z M 107.292969 206.476562 C 119.691406 206.476562 126.890625 210.53125 132.125 216.421875 C 137.363281 222.3125 140.359375 230.816406 140.359375 239.539062 C 140.359375 248.265625 137.363281 256.769531 132.125 262.660156 C 126.890625 268.550781 119.691406 272.605469 107.292969 272.605469 C 94.890625 272.605469 87.695312 268.550781 82.457031 262.660156 C 77.222656 256.769531 74.222656 248.265625 74.222656 239.539062 C 74.222656 230.816406 77.222656 222.3125 82.457031 216.421875 C 87.695312 210.53125 94.890625 206.476562 107.292969 206.476562 Z M 702.523438 206.476562 C 714.925781 206.476562 722.121094 210.53125 727.359375 216.421875 C 732.59375 222.3125 735.59375 230.816406 735.59375 239.539062 C 735.59375 248.265625 732.59375 256.769531 727.359375 262.660156 C 722.121094 268.550781 714.925781 272.605469 702.523438 272.605469 C 690.125 272.605469 682.925781 268.550781 677.691406 262.660156 C 672.453125 256.769531 669.457031 248.265625 669.457031 239.539062 C 669.457031 230.816406 672.453125 222.3125 677.691406 216.421875 C 682.925781 210.53125 690.125 206.476562 702.523438 206.476562 Z M 404.90625 371.800781 C 417.308594 371.800781 424.503906 375.855469 429.742188 381.746094 C 434.980469 387.636719 437.976562 396.140625 437.976562 404.867188 C 437.976562 413.59375 434.980469 422.097656 429.742188 427.988281 C 424.503906 433.878906 417.308594 437.933594 404.90625 437.933594 C 392.507812 437.933594 385.3125 433.878906 380.074219 427.988281 C 374.835938 422.097656 371.839844 413.59375 371.839844 404.867188 C 371.839844 396.140625 374.835938 387.636719 380.074219 381.746094 C 385.3125 375.855469 392.507812 371.800781 404.90625 371.800781 Z M 107.292969 537.128906 C 119.691406 537.128906 126.890625 541.183594 132.125 547.074219 C 137.363281 552.964844 140.359375 561.46875 140.359375 570.191406 C 140.359375 578.917969 137.363281 587.421875 132.125 593.3125 C 126.890625 599.203125 119.691406 603.257812 107.292969 603.257812 C 94.890625 603.257812 87.695312 599.203125 82.457031 593.3125 C 77.222656 587.421875 74.222656 578.917969 74.222656 570.191406 C 74.222656 561.46875 77.222656 552.964844 82.457031 547.074219 C 87.695312 541.183594 94.890625 537.128906 107.292969 537.128906 Z M 702.523438 537.128906 C 714.925781 537.128906 722.121094 541.183594 727.359375 547.074219 C 732.59375 552.964844 735.59375 561.46875 735.59375 570.191406 C 735.59375 578.917969 732.59375 587.421875 727.359375 593.3125 C 722.121094 599.203125 714.925781 603.257812 702.523438 603.257812 C 690.125 603.257812 682.925781 599.203125 677.691406 593.3125 C 672.453125 587.421875 669.457031 578.917969 669.457031 570.191406 C 669.457031 561.46875 672.453125 552.964844 677.691406 547.074219 C 682.925781 541.183594 690.125 537.128906 702.523438 537.128906 Z M 404.421875 686.113281 C 404.757812 686.136719 405.089844 686.148438 405.425781 686.148438 C 417.351562 686.3125 424.617188 690.101562 429.742188 695.867188 C 434.980469 701.757812 437.976562 710.261719 437.976562 718.988281 C 437.976562 727.710938 434.980469 736.214844 429.742188 742.105469 C 424.503906 747.996094 417.308594 752.050781 404.90625 752.050781 C 392.507812 752.050781 385.3125 747.996094 380.074219 742.105469 C 374.835938 736.214844 371.839844 727.710938 371.839844 718.988281 C 371.839844 710.261719 374.835938 701.757812 380.074219 695.867188 C 385.210938 690.089844 392.460938 686.269531 404.421875 686.113281 Z M 404.421875 686.113281"/></g></svg>