<?xml version="1.0" encoding="UTF-8"?>
<svg xmlns="http://www.w3.org/2000/svg" xmlns:xlink="http://www.w3.org/1999/xlink" width="810pt" height="809.999993pt" viewBox="0 0 810 809.999993" version="1.2">
<defs>
<clipPath id="clip1">
  <path d="M 51.492188 51.492188 L 762.492188 51.492188 L 762.492188 762.492188 L 51.492188 762.492188 Z M 51.492188 51.492188 "/>
</clipPath>
</defs>
<g id="surface1">
<g clip-path="url(#clip1)" clip-rule="nonzero">
<path style=" stroke:none;fill-rule:nonzero;fill:rgb(15.689087%,21.569824%,33.729553%);fill-opacity:1;" d="M 683.492188 51.492188 L 130.492188 51.492188 C 86.84375 51.492188 51.492188 86.84375 51.492188 130.492188 L 51.492188 683.492188 C 51.492188 727.140625 86.84375 762.492188 130.492188 762.492188 L 683.492188 762.492188 C 727.140625 762.492188 762.492188 727.140625 762.492188 683.492188 L 762.492188 130.492188 C 762.492188 86.84375 727.140625 51.492188 683.492188 51.492188 Z M 288.492188 604.492188 L 188.832031 604.492188 L 188.832031 327.992188 L 288.492188 327.992188 Z M 236.90625 277.3125 C 206.449219 277.3125 186.109375 257.011719 186.109375 229.914062 C 186.109375 202.816406 206.410156 182.511719 240.261719 182.511719 C 270.71875 182.511719 291.058594 202.816406 291.058594 229.914062 C 291.058594 257.011719 270.757812 277.3125 236.90625 277.3125 Z M 643.992188 604.492188 L 547.53125 604.492188 L 547.53125 453.363281 C 547.53125 411.574219 521.816406 401.9375 512.179688 401.9375 C 502.542969 401.9375 470.390625 408.375 470.390625 453.363281 C 470.390625 459.804688 470.390625 604.492188 470.390625 604.492188 L 370.730469 604.492188 L 370.730469 327.992188 L 470.390625 327.992188 L 470.390625 366.582031 C 483.226562 344.066406 508.941406 327.992188 557.171875 327.992188 C 605.398438 327.992188 643.992188 366.582031 643.992188 453.363281 Z M 643.992188 604.492188 "/>
</g>
</g>
</svg>
