<svg xmlns="http://www.w3.org/2000/svg" width="810" viewBox="0 0 810 810" height="810" version="1.0"><defs><clipPath id="a"><path d="M 34.484375 30.996094 L 775.484375 30.996094 L 775.484375 810 L 34.484375 810 Z M 34.484375 30.996094"/></clipPath></defs><path fill="#FFF" d="M-81 -81H891V891H-81z"/><path fill="#FFF" d="M-81 -81H891V891H-81z"/><g clip-path="url(#a)"><path fill="#08102D" d="M 650.613281 736.925781 C 650.613281 744 644.855469 749.757812 637.78125 749.757812 L 175.878906 749.757812 L 175.878906 724.089844 L 624.949219 724.089844 L 624.949219 678.0625 L 650.613281 703.734375 Z M 197.78125 617.648438 C 206.289062 609.136719 213.066406 599.367188 217.972656 588.757812 C 224.226562 593.148438 231.832031 595.738281 240.03125 595.738281 L 291.355469 595.738281 C 312.582031 595.738281 329.847656 578.464844 329.847656 557.234375 L 329.847656 505.894531 C 329.847656 484.660156 312.582031 467.386719 291.355469 467.386719 L 276.335938 467.386719 C 276.984375 463.300781 277.089844 459.089844 276.601562 454.847656 C 275.449219 444.964844 271.226562 435.976562 264.535156 428.882812 L 291.355469 428.882812 C 312.582031 428.882812 329.847656 411.609375 329.847656 390.378906 L 329.847656 364.707031 L 304.183594 364.707031 L 304.183594 390.378906 C 304.183594 397.453125 298.425781 403.210938 291.355469 403.210938 L 240.03125 403.210938 C 232.957031 403.210938 227.203125 397.453125 227.203125 390.378906 L 227.203125 339.035156 C 227.203125 331.960938 232.957031 326.203125 240.03125 326.203125 L 265.691406 326.203125 L 265.691406 300.53125 L 240.03125 300.53125 C 218.804688 300.53125 201.539062 317.804688 201.539062 339.035156 L 201.539062 390.378906 C 201.539062 401.15625 206 410.914062 213.160156 417.910156 C 207.648438 420.367188 202.546875 423.980469 198.230469 428.738281 L 163.046875 467.480469 L 163.046875 108.003906 L 599.289062 108.003906 L 599.289062 372.226562 L 565.703125 405.824219 C 558.691406 404.089844 551.5 403.210938 544.195312 403.210938 L 475.523438 403.210938 C 459.695312 403.210938 445.667969 412.714844 439.789062 427.414062 L 403.683594 517.699219 C 403.546875 518.039062 403.460938 518.382812 403.335938 518.726562 L 368.339844 518.726562 L 368.339844 544.398438 L 403.109375 544.398438 C 405 549.945312 408.132812 555.039062 412.324219 559.25 L 355.507812 616.09375 L 355.507812 672.75 L 412.144531 672.75 L 477.6875 607.183594 L 506.90625 629.109375 C 522.355469 640.699219 541.496094 647.078125 560.796875 647.078125 L 588.65625 647.078125 C 592.089844 647.078125 595.3125 648.414062 597.730469 650.839844 L 599.289062 652.394531 L 599.289062 698.417969 L 175.878906 698.417969 L 175.878906 670.550781 C 175.878906 650.5625 183.660156 631.78125 197.78125 617.648438 Z M 227.203125 540.855469 C 227.203125 537.863281 228.253906 534.949219 230.171875 532.648438 C 237.6875 523.621094 251.101562 507.527344 263.175781 493.058594 L 291.355469 493.058594 C 298.425781 493.058594 304.183594 498.816406 304.183594 505.894531 L 304.183594 557.234375 C 304.183594 564.308594 298.425781 570.070312 291.355469 570.070312 L 240.03125 570.070312 C 232.957031 570.070312 227.203125 564.308594 227.203125 557.234375 Z M 111.726562 524 L 111.726562 69.5 C 111.726562 62.425781 117.484375 56.664062 124.554688 56.664062 L 637.78125 56.664062 C 644.855469 56.664062 650.613281 62.425781 650.613281 69.5 L 650.613281 320.886719 L 624.949219 346.558594 L 624.949219 82.335938 L 137.386719 82.335938 L 137.386719 495.738281 Z M 689.105469 324.640625 C 692.945312 324.640625 696.558594 326.140625 699.277344 328.859375 C 704.886719 334.46875 704.886719 343.605469 699.277344 349.214844 L 676.273438 372.226562 L 655.925781 351.871094 L 678.929688 328.859375 C 681.648438 326.140625 685.261719 324.640625 689.105469 324.640625 Z M 650.613281 492.988281 L 627.757812 457.058594 L 650.613281 434.195312 Z M 565.363281 535.882812 C 568.019531 539.867188 567.488281 545.226562 564.097656 548.609375 C 560.898438 551.820312 555.90625 552.488281 551.964844 550.238281 L 540.925781 543.929688 L 558.804688 526.042969 Z M 491.683594 516.171875 L 637.78125 370.023438 L 658.128906 390.378906 L 517.832031 530.722656 L 496.179688 518.351562 C 494.722656 517.511719 493.210938 516.808594 491.683594 516.171875 Z M 427.511719 527.234375 L 463.609375 436.949219 C 465.570312 432.046875 470.25 428.882812 475.523438 428.882812 L 542.652344 428.882812 L 430.441406 541.132812 C 426.871094 537.59375 425.5625 532.109375 427.511719 527.234375 Z M 450.984375 587.152344 L 456.949219 591.628906 L 401.515625 647.078125 L 381.167969 647.078125 L 381.167969 626.722656 L 437.730469 570.148438 C 440.527344 576.824219 445.070312 582.714844 450.984375 587.152344 Z M 588.65625 621.410156 L 560.796875 621.410156 C 547.007812 621.410156 533.339844 616.851562 522.304688 608.574219 L 466.382812 566.621094 C 462.71875 563.871094 460.519531 559.835938 460.195312 555.265625 C 459.867188 550.691406 461.480469 546.386719 464.71875 543.144531 C 469.667969 538.199219 477.375 537.164062 483.449219 540.636719 L 539.234375 572.523438 C 553.199219 580.507812 570.878906 578.132812 582.242188 566.765625 C 594.253906 554.75 596.132812 535.773438 586.710938 521.640625 L 577.304688 507.527344 L 609.167969 475.652344 L 666.207031 565.3125 L 757.015625 656.152344 L 775.160156 638.003906 L 686.339844 549.15625 L 676.273438 533.332031 L 676.273438 408.527344 L 717.421875 367.363281 C 733.039062 351.746094 733.039062 326.328125 717.421875 310.710938 C 709.859375 303.144531 699.804688 298.972656 689.105469 298.972656 C 684.667969 298.972656 680.351562 299.699219 676.273438 301.078125 L 676.273438 69.5 C 676.273438 48.265625 659.007812 30.996094 637.78125 30.996094 L 124.554688 30.996094 C 103.332031 30.996094 86.066406 48.265625 86.066406 69.5 L 86.066406 319.785156 L 60.402344 339.035156 C 44.332031 351.09375 34.742188 370.285156 34.742188 390.378906 L 34.742188 801.101562 L 60.402344 801.101562 L 60.402344 390.378906 C 60.402344 378.320312 66.160156 366.804688 75.796875 359.574219 L 86.066406 351.871094 L 86.066406 524.011719 C 86.066406 534.703125 92.503906 544.105469 102.480469 547.957031 C 112.445312 551.8125 123.527344 549.1875 130.722656 541.269531 L 162.839844 505.894531 L 163.046875 505.894531 L 163.046875 505.667969 L 217.226562 445.996094 C 223.8125 438.746094 234.695312 437.710938 242.523438 443.585938 L 243.175781 444.082031 C 247.648438 447.433594 250.46875 452.316406 251.109375 457.816406 C 251.746094 463.269531 250.15625 468.597656 246.636719 472.816406 C 233.824219 488.175781 218.644531 506.386719 210.460938 516.207031 C 204.710938 523.109375 201.539062 531.863281 201.539062 540.855469 L 201.539062 546.597656 C 201.539062 566.582031 193.757812 585.367188 179.636719 599.5 C 160.667969 618.476562 150.21875 643.707031 150.21875 670.550781 L 150.21875 801.101562 L 175.878906 801.101562 L 175.878906 775.429688 L 637.78125 775.429688 C 659.007812 775.429688 676.273438 758.15625 676.273438 736.925781 L 676.273438 729.402344 L 757.015625 810.175781 L 775.160156 792.023438 L 615.878906 632.691406 C 608.613281 625.414062 598.9375 621.410156 588.65625 621.410156"/></g><path fill="#08102D" d="M 329.847656 197.851562 L 304.183594 197.851562 L 304.183594 223.519531 C 304.183594 230.597656 298.425781 236.355469 291.355469 236.355469 L 240.03125 236.355469 C 232.957031 236.355469 227.203125 230.597656 227.203125 223.519531 L 227.203125 172.179688 C 227.203125 165.105469 232.957031 159.347656 240.03125 159.347656 L 265.691406 159.347656 L 265.691406 133.675781 L 240.03125 133.675781 C 218.804688 133.675781 201.539062 150.949219 201.539062 172.179688 L 201.539062 223.519531 C 201.539062 244.753906 218.804688 262.027344 240.03125 262.027344 L 291.355469 262.027344 C 312.582031 262.027344 329.847656 244.753906 329.847656 223.519531 L 329.847656 197.851562"/><path fill="#08102D" d="M 261.933594 219.761719 L 326.085938 155.585938 L 307.945312 137.4375 L 243.789062 201.609375 L 261.933594 219.761719"/><path fill="#08102D" d="M 560.796875 133.675781 L 368.339844 133.675781 L 368.339844 159.347656 L 560.796875 159.347656 L 560.796875 133.675781"/><path fill="#08102D" d="M 243.789062 368.46875 L 261.933594 386.617188 L 326.085938 322.441406 L 307.945312 304.292969 L 243.789062 368.46875"/><path fill="#08102D" d="M 496.644531 351.871094 L 368.339844 351.871094 L 368.339844 377.542969 L 496.644531 377.542969 L 496.644531 351.871094"/><path fill="#08102D" d="M 522.304688 185.015625 L 368.339844 185.015625 L 368.339844 210.6875 L 522.304688 210.6875 L 522.304688 185.015625"/><path fill="#08102D" d="M 560.796875 300.53125 L 368.339844 300.53125 L 368.339844 326.203125 L 560.796875 326.203125 L 560.796875 300.53125"/></svg>