<?xml version="1.0" encoding="UTF-8"?>
<svg xmlns="http://www.w3.org/2000/svg" xmlns:xlink="http://www.w3.org/1999/xlink" width="810pt" height="809.999993pt" viewBox="0 0 810 809.999993" version="1.2">
<defs>
<clipPath id="clip1">
  <path d="M 43.203125 14 L 764 14 L 764 807 L 43.203125 807 Z M 43.203125 14 "/>
</clipPath>
</defs>
<g id="surface1">
<g clip-path="url(#clip1)" clip-rule="nonzero">
<path style=" stroke:none;fill-rule:nonzero;fill:rgb(100%,100%,100%);fill-opacity:1;" d="M 115.21875 14.082031 C 75.613281 14.082031 43.203125 46.492188 43.203125 86.101562 L 43.203125 662.277344 C 43.203125 701.890625 75.613281 734.300781 115.21875 734.300781 L 259.25 734.300781 C 279.125 734.300781 295.257812 718.167969 295.257812 698.289062 C 295.257812 678.410156 279.125 662.277344 259.25 662.277344 L 115.21875 662.277344 L 115.21875 86.101562 L 547.308594 86.101562 L 547.308594 266.160156 C 547.308594 286.035156 563.441406 302.167969 583.316406 302.167969 C 603.191406 302.167969 619.324219 286.035156 619.324219 266.160156 L 619.324219 86.101562 C 619.324219 46.492188 586.917969 14.082031 547.308594 14.082031 Z M 223.242188 194.136719 C 203.367188 194.136719 187.234375 210.269531 187.234375 230.148438 C 187.234375 250.023438 203.367188 266.160156 223.242188 266.160156 L 439.285156 266.160156 C 459.164062 266.160156 475.292969 250.023438 475.292969 230.148438 C 475.292969 210.269531 459.164062 194.136719 439.285156 194.136719 Z M 223.242188 338.179688 C 203.4375 338.179688 187.234375 354.386719 187.234375 374.191406 C 187.234375 393.996094 203.4375 410.203125 223.242188 410.203125 L 313.964844 410.203125 C 335.570312 380.671875 363.285156 356.1875 395.332031 338.179688 Z M 529.304688 374.191406 C 482.53125 374.191406 439.058594 390.558594 405.109375 418.289062 C 359.894531 454.425781 331.265625 510.253906 331.265625 572.25 C 331.265625 579.667969 331.703125 587.105469 332.601562 594.40625 C 343.660156 693.222656 427.714844 770.3125 529.304688 770.3125 C 570.878906 770.3125 609.480469 757.339844 641.40625 735.285156 L 701.886719 795.773438 C 715.96875 809.851562 738.761719 809.851562 752.804688 795.773438 C 766.882812 781.726562 766.882812 758.894531 752.804688 744.851562 L 692.324219 684.363281 C 714.378906 652.433594 727.347656 613.828125 727.347656 572.25 C 727.347656 463.203125 638.34375 374.191406 529.304688 374.191406 Z M 547.308594 447.972656 C 608.792969 456.621094 655.332031 508.140625 655.332031 572.25 C 655.332031 642.539062 599.585938 698.289062 529.304688 698.289062 C 465.308594 698.289062 413.773438 651.40625 404.96875 590.257812 L 511.300781 590.257812 C 531.179688 590.257812 547.308594 574.125 547.308594 554.246094 Z M 223.242188 482.222656 C 203.4375 482.222656 187.234375 498.429688 187.234375 518.234375 C 187.234375 538.039062 203.4375 554.246094 223.242188 554.246094 L 260.304688 554.246094 C 261.386719 529.039062 266.429688 504.910156 275.074219 482.222656 Z M 223.242188 482.222656 "/>
</g>
</g>
</svg>
