<svg xmlns="http://www.w3.org/2000/svg" width="810" viewBox="0 0 810 810" height="810" version="1.0"><path fill="#08102D" d="M 163.722656 192.679688 C 157.03125 193.199219 148.566406 196.132812 137.609375 202.464844 C 67.484375 242.992188 168.46875 261.65625 127.980469 331.851562 C 87.496094 402.050781 20.902344 323.8125 20.902344 404.871094 C 20.902344 485.929688 87.496094 407.6875 127.980469 477.886719 C 168.46875 548.085938 67.484375 566.746094 137.609375 607.273438 C 207.734375 647.804688 173.34375 550.910156 254.316406 550.910156 C 335.289062 550.910156 300.898438 647.804688 371.023438 607.273438 C 441.148438 566.746094 340.164062 548.085938 380.652344 477.886719 C 421.136719 407.6875 487.730469 485.929688 487.730469 404.871094 C 487.730469 323.8125 421.140625 402.050781 380.652344 331.851562 C 340.164062 261.65625 441.148438 242.996094 371.023438 202.464844 C 300.898438 161.9375 335.289062 258.832031 254.316406 258.832031 C 185.996094 258.832031 199.863281 189.878906 163.722656 192.679688 Z M 254.316406 311.40625 C 305.882812 311.40625 347.679688 353.25 347.679688 404.867188 C 347.679688 456.484375 305.878906 498.328125 254.316406 498.328125 C 202.75 498.328125 160.949219 456.484375 160.949219 404.867188 C 160.949219 353.25 202.75 311.40625 254.316406 311.40625 Z M 254.316406 311.40625"/><path fill="#08102D" d="M 468.308594 301.050781 C 464.15625 303.898438 459.757812 308.980469 455.011719 317.207031 C 424.648438 369.855469 497.226562 344.066406 497.226562 404.859375 C 497.226562 465.652344 424.664062 439.832031 455.03125 492.480469 C 485.398438 545.128906 499.339844 469.3125 551.9375 499.710938 C 604.53125 530.105469 545.929688 580.132812 606.65625 580.132812 C 667.386719 580.132812 608.75 530.109375 661.34375 499.710938 C 713.941406 469.3125 727.902344 545.160156 758.261719 492.511719 C 788.625 439.863281 716.046875 465.652344 716.046875 404.859375 C 716.046875 344.066406 788.609375 369.886719 758.242188 317.238281 C 727.875 264.59375 713.933594 340.40625 661.339844 310.007812 C 608.746094 279.613281 667.347656 229.585938 606.617188 229.585938 C 545.890625 229.585938 604.527344 279.609375 551.929688 310.007812 C 507.554688 335.65625 490.730469 285.664062 468.308594 301.050781 Z M 571.625 344.15625 C 605.117188 324.800781 647.941406 336.285156 667.277344 369.8125 C 686.613281 403.339844 675.140625 446.207031 641.648438 465.566406 C 608.15625 484.921875 565.332031 473.433594 545.996094 439.90625 C 526.660156 406.378906 538.132812 363.511719 571.625 344.15625 Z M 571.625 344.15625"/></svg>